<?xml version="1.0" encoding="UTF-8"?>
<svg xmlns="http://www.w3.org/2000/svg" style="stroke-dasharray:none; shape-rendering:auto; font-family:'Arial'; text-rendering:auto; fill-opacity:1; color-interpolation:auto; color-rendering:auto; font-size:12; fill:black; stroke:black; image-rendering:auto; stroke-miterlimit:10; stroke-linecap:square; stroke-linejoin:miter; font-style:normal; stroke-width:1; stroke-dashoffset:0; font-weight:normal; stroke-opacity:1;" contentScriptType="text/ecmascript" preserveAspectRatio="xMidYMid meet" zoomAndPan="magnify" version="1.0" contentStyleType="text/css" xml:xlink="http://www.w3.org/1999/xlink" width="741" height="501"><rect x="140" y="120" width="601" height="381" ry="0" rx="0" style="stroke:#000000; fill:#FFFFFF" /><g componentSequence="2"><text x="-310" y="147" transform="rotate(270)" text-anchor="middle" style="font-weight:bold;font-size:10px;stroke:none; fill:#434343"><tspan dy="14" x="-310">Administrador</tspan></text></g><rect x="100" y="120" width="31" height="381" ry="0" rx="0" style="stroke:#000000; fill:#FFFFFF" /><g componentSequence="1"><text x="-310" y="107" transform="rotate(270)" text-anchor="middle" style="font-weight:bold;font-size:10px;stroke:none; fill:#434343"><tspan dy="14" x="-310">Sincroniza dados adicionais</tspan></text></g><g sequence="3"><ellipse cx="287" cy="217" rx="17" ry="17" stroke-width="1" style="fill:url(#linearGradient66FF6696FF96B6FFB6_1642876381);" stroke="336633" /></g><g sequence="3"><ellipse cx="287" cy="217" rx="12" ry="12" stroke-width="1" style="stroke:#000000; fill:none" /></g><g sequence="3"><path style="fill:none; stroke-width:1; stroke:#000000;" d="M276.0 217.0 L282.0 217.0" /></g><g sequence="3"><path style="fill:none; stroke-width:1; stroke:#000000;" d="M293.0 217.0 L299.0 217.0" /></g><g sequence="3"><path style="fill:none; stroke-width:1; stroke:#000000;" d="M287.0 206.0 L287.0 212.0" /></g><g sequence="3"><path style="fill:none; stroke-width:1; stroke:#000000;" d="M287.0 223.0 L287.0 229.0" /></g><g sequence="3"><ellipse cx="287" cy="217" rx="1" ry="1" stroke-width="1" style="stroke:#000000; fill:#000000" /></g><g sequence="3"><path style="fill:none; stroke-width:1; stroke:#000000;" d="M287.0 217.0 L295.0 212.0" /></g><g sequence="3"><path style="fill:none; stroke-width:1; stroke:#000000;" d="M287.0 217.0 L281.0 213.0" /></g><g sequence="3"><path style="fill:none; stroke-width:1; stroke:#000000;" d="M291.0 210.0 L293.0 207.0" /></g><g sequence="3"><path style="fill:none; stroke-width:1; stroke:#000000;" d="M294.0 213.0 L297.0 211.0" /></g><g sequence="3"><path style="fill:none; stroke-width:1; stroke:#000000;" d="M294.0 221.0 L297.0 223.0" /></g><g sequence="3"><path style="fill:none; stroke-width:1; stroke:#000000;" d="M291.0 224.0 L293.0 227.0" /></g><g sequence="3"><path style="fill:none; stroke-width:1; stroke:#000000;" d="M283.0 224.0 L281.0 227.0" /></g><g sequence="3"><path style="fill:none; stroke-width:1; stroke:#000000;" d="M280.0 221.0 L277.0 223.0" /></g><g sequence="3"><path style="fill:none; stroke-width:1; stroke:#000000;" d="M283.0 210.0 L281.0 207.0" /></g><g sequence="3"><path style="fill:none; stroke-width:1; stroke:#000000;" d="M280.0 213.0 L277.0 211.0" /></g><g sequence="5"><ellipse cx="687" cy="227" rx="17" ry="17" stroke-width="3" style="fill:url(#linearGradientFF6666FF9696FFB6B6_1865133968);" stroke="993333" /></g><g sequence="6"><ellipse cx="687" cy="387" rx="17" ry="17" stroke-width="3" style="fill:url(#linearGradientFF6666FF9696FFB6B6_1796482733);" stroke="993333" /></g><g sequence="7"><rect x="430" y="350" width="106" height="84" ry="5" rx="5" style="fill:url(#linearGradientF8FBFEEDF5FCDEEDFAD4E7F8E2E5E9_773236139);" stroke="191970" /></g><g componentSequence="7"><text x="483" y="365" text-anchor="middle" style="font-weight:bold;font-size:10px;stroke:none; fill:#333399"><tspan dy="14" x="483">Bloquear</tspan><tspan dy="14" x="483">usuários</tspan><tspan dy="14" x="483">demitidos</tspan></text></g><g sequence="14"><rect x="240" y="298" width="106" height="84" ry="5" rx="5" style="fill:url(#linearGradientF8FBFEEDF5FCDEEDFAD4E7F8E2E5E9_756516625);" stroke="191970" /></g><g componentSequence="14"><text x="293" y="313" text-anchor="middle" style="font-weight:bold;font-size:10px;stroke:none; fill:#333399"><tspan dy="14" x="293">Comparar</tspan><tspan dy="14" x="293">cadastros de</tspan><tspan dy="14" x="293">usuários</tspan></text></g><g sequence="15"><polygon points=" 450 210 480 180 510 210 480 240 450 210" style="fill:url(#linearGradientFAFBFCFFFFCC_527624716);" stroke="000000" /></g><g componentSequence="15"><text x="480" y="250" text-anchor="middle" style="font-weight:bold;font-size:10px;stroke:none; fill:#333399"><tspan dy="14" x="480">Exclusiv</tspan><tspan dy="14" x="480">o</tspan></text></g><g componentSequence="17"><text x="492" y="316" style="font-size:10px;font-weight:none;stroke:none; fill:#333399" text-anchor="left" /></g><g componentSequence="16"><text x="408" y="279" style="font-size:10px;font-weight:none;stroke:none; fill:#333399" text-anchor="left" /></g><g componentSequence="18"><text x="600" y="229" style="font-size:10px;font-weight:none;stroke:none; fill:#333399" text-anchor="left" /></g><g componentSequence="9"><text x="300" y="266" style="font-size:10px;font-weight:none;stroke:none; fill:#333399" text-anchor="left" /></g><g componentSequence="19"><text x="192" y="258" style="font-size:10px;font-weight:none;stroke:none; fill:#333399" text-anchor="left" /></g><g componentSequence="11"><text x="550" y="352" style="font-size:10px;font-weight:none;stroke:none; fill:#333399" text-anchor="left"><tspan dy="14" x="550">Cancelar sincronização</tspan></text></g><path style="fill:none; stroke:#000000;stroke-width:1" d="M287.0 234.0 L291.0 297.0" /><polygon style="fill:#000000; stroke:#000000;" points=" 295 287 291 297 285 287 290 289" /><path style="fill:none; stroke:#000000;stroke-width:1" d="M536.0 390.0 L670.0 387.0" /><polygon style="fill:#000000; stroke:#000000;" points=" 660 382 670 387 660 392 662 387" /><path style="fill:none; stroke:#000000;stroke-width:1" d="M346.0 309.0 L449.0 248.0" /><polygon style="fill:#000000; stroke:#000000;" points=" 438 249 449 248 443 257 442 252" /><path style="fill:none; stroke:#000000;stroke-width:1" d="M481.0 282.0 L482.0 349.0" /><polygon style="fill:#000000; stroke:#000000;" points=" 487 339 482 349 477 339 482 341" /><path style="fill:none; stroke:#000000;stroke-width:1" d="M510.0 230.0 L670.0 227.0" /><polygon style="fill:#000000; stroke:#000000;" points=" 660 222 670 227 660 232 662 227" /><path style="fill:none; stroke:#009600;stroke-width:1" d="M292.0 382.0 L292.0 470.0 L182.0 470.0 L182.0 161.0 L478.0 161.0 L478.0 179.0" /><polygon style="fill:#009600; stroke:#009600;" points=" 483 169 478 179 473 169 478 171" /><defs><linearGradient xmlns:xlink="http://www.w3.org/1999/xlink" xlink:href="#linearGradient66FF6696FF96B6FFB6" id="linearGradient66FF6696FF96B6FFB6_1642876381" x1="0" y1="200.0" x2="0" y2="235.0" gradientUnits="userSpaceOnUse" xlink:type="simple" xlink:actuate="onLoad" xlink:show="other" /><linearGradient id="linearGradient66FF6696FF96B6FFB6"><stop style="stop-color:#66FF66;stop-opacity:1;" offset="0.0" id="stop66FF66" /><stop style="stop-color:#96FF96;stop-opacity:1;" offset="0.5" id="stop96FF96" /><stop style="stop-color:#B6FFB6;stop-opacity:1;" offset="1.0" id="stopB6FFB6" /></linearGradient><linearGradient xmlns:xlink="http://www.w3.org/1999/xlink" xlink:href="#linearGradientFF6666FF9696FFB6B6" id="linearGradientFF6666FF9696FFB6B6_1865133968" x1="0" y1="210.0" x2="0" y2="245.0" gradientUnits="userSpaceOnUse" xlink:type="simple" xlink:actuate="onLoad" xlink:show="other" /><linearGradient id="linearGradientFF6666FF9696FFB6B6"><stop style="stop-color:#FF6666;stop-opacity:1;" offset="0.0" id="stopFF6666" /><stop style="stop-color:#FF9696;stop-opacity:1;" offset="0.5" id="stopFF9696" /><stop style="stop-color:#FFB6B6;stop-opacity:1;" offset="1.0" id="stopFFB6B6" /></linearGradient><linearGradient xmlns:xlink="http://www.w3.org/1999/xlink" xlink:href="#linearGradientFF6666FF9696FFB6B6" id="linearGradientFF6666FF9696FFB6B6_1796482733" x1="0" y1="370.0" x2="0" y2="405.0" gradientUnits="userSpaceOnUse" xlink:type="simple" xlink:actuate="onLoad" xlink:show="other" /><linearGradient xmlns:xlink="http://www.w3.org/1999/xlink" xlink:href="#linearGradientF8FBFEEDF5FCDEEDFAD4E7F8E2E5E9" id="linearGradientF8FBFEEDF5FCDEEDFAD4E7F8E2E5E9_773236139" x1="0" y1="350.0" x2="0" y2="456.0" gradientUnits="userSpaceOnUse" xlink:type="simple" xlink:actuate="onLoad" xlink:show="other" /><linearGradient id="linearGradientF8FBFEEDF5FCDEEDFAD4E7F8E2E5E9"><stop style="stop-color:#F8FBFE;stop-opacity:1;" offset="0.0" id="stopF8FBFE" /><stop style="stop-color:#EDF5FC;stop-opacity:1;" offset="0.25" id="stopEDF5FC" /><stop style="stop-color:#DEEDFA;stop-opacity:1;" offset="0.5" id="stopDEEDFA" /><stop style="stop-color:#D4E7F8;stop-opacity:1;" offset="0.75" id="stopD4E7F8" /><stop style="stop-color:#E2E5E9;stop-opacity:1;" offset="1.0" id="stopE2E5E9" /></linearGradient><linearGradient xmlns:xlink="http://www.w3.org/1999/xlink" xlink:href="#linearGradientF8FBFEEDF5FCDEEDFAD4E7F8E2E5E9" id="linearGradientF8FBFEEDF5FCDEEDFAD4E7F8E2E5E9_756516625" x1="0" y1="298.0" x2="0" y2="404.0" gradientUnits="userSpaceOnUse" xlink:type="simple" xlink:actuate="onLoad" xlink:show="other" /><linearGradient xmlns:xlink="http://www.w3.org/1999/xlink" xlink:href="#linearGradientFAFBFCFFFFCC" id="linearGradientFAFBFCFFFFCC_527624716" x1="0" y1="180.0" x2="0" y2="240.0" gradientUnits="userSpaceOnUse" xlink:type="simple" xlink:actuate="onLoad" xlink:show="other" /><linearGradient id="linearGradientFAFBFCFFFFCC"><stop style="stop-color:#FAFBFC;stop-opacity:1;" offset="0.0" id="stopFAFBFC" /><stop style="stop-color:#FFFFCC;stop-opacity:1;" offset="1.0" id="stopFFFFCC" /></linearGradient></defs></svg>
